<svg xmlns="http://www.w3.org/2000/svg" xmlns:xlink="http://www.w3.org/1999/xlink" width="338.885" height="244.208" viewBox="0 0 338.885 244.208">
  <defs>
    <linearGradient id="linear-gradient" x1="0.5" y1="1" x2="0.5" gradientUnits="objectBoundingBox">
      <stop offset="0" stop-color="gray" stop-opacity="0.251"/>
      <stop offset="0.54" stop-color="gray" stop-opacity="0.122"/>
      <stop offset="1" stop-color="gray" stop-opacity="0.102"/>
    </linearGradient>
    <linearGradient id="linear-gradient-2" x1="0.5" y1="1" x2="0.5" y2="0" xlink:href="#linear-gradient"/>
  </defs>
  <g id="undraw_doctor_kw5l" transform="translate(0.001 -0.015)">
    <path id="Path_256" data-name="Path 256" d="M253.838,114.232c-21.725-.755-42.434-7.769-62.178-15.442S152.347,82.615,131.13,78.55c-13.641-2.618-29.242-2.986-40.231,4.328C80.322,89.913,76.9,102.06,75.067,113.33c-1.382,8.481-2.184,17.4,1.594,25.345,2.63,5.51,7.3,10.144,10.527,15.423,11.232,18.368,3.292,41.02-8.883,58.97-5.71,8.424-12.334,16.44-16.74,25.4s-6.446,19.22-2.59,28.356c3.822,9.048,12.927,15.857,22.793,20.64,20.037,9.707,43.648,12.484,66.671,14.075,50.964,3.485,102.2,1.975,153.3.465,18.911-.562,37.906-1.126,56.509-4.056,10.331-1.626,21-4.2,28.5-10.424,9.52-7.9,11.881-21.273,5.5-31.179-10.7-16.612-40.29-20.74-47.772-38.568-4.115-9.813.112-20.746,6.1-29.847,12.833-19.523,34.35-36.652,35.482-58.971.78-15.329-9.563-30.677-25.557-37.931-16.761-7.61-40.006-6.649-52.371,5.928C295.4,109.91,273.018,114.9,253.838,114.232Z" transform="translate(-56.94 -71.154)" fill="#63e4ff" opacity="0.1"/>
    <path id="Path_257" data-name="Path 257" d="M214.313,665.793s-17.161-12.974-20.4-29.476a32.618,32.618,0,0,0-10.05-18.006,54.917,54.917,0,0,0-8.041-5.991" transform="translate(-138.729 -439.561)" fill="none" stroke="#535461" stroke-miterlimit="10" stroke-width="2"/>
    <path id="Path_258" data-name="Path 258" d="M150.867,574.911c1.5,2.034,2.184,10.655,2.184,10.655s-8.041-3.167-9.548-5.2a4.583,4.583,0,1,1,7.364-5.457Z" transform="translate(-115.875 -412.548)" fill="#63e4ff"/>
    <path id="Path_259" data-name="Path 259" d="M195.125,591.213c.156,2.524-3.953,10.131-3.953,10.131s-5.033-7.033-5.192-9.557a4.58,4.58,0,1,1,9.142-.574Z" transform="translate(-145.712 -422.085)" fill="#63e4ff"/>
    <path id="Path_260" data-name="Path 260" d="M240.719,648.357c-1.136,2.259-8.527,6.752-8.527,6.752s-.789-8.612.346-10.871a4.58,4.58,0,1,1,8.182,4.119Z" transform="translate(-177.328 -459.785)" fill="#63e4ff"/>
    <path id="Path_261" data-name="Path 261" d="M263.751,704.7c-.739,2.418-7.264,8.094-7.264,8.094s-2.237-8.353-1.5-10.774a4.581,4.581,0,1,1,8.761,2.68Z" transform="translate(-193.093 -499.043)" fill="#63e4ff"/>
    <path id="Path_262" data-name="Path 262" d="M170.044,632.638c2.5.337,10.387-3.226,10.387-3.226s-6.658-5.516-9.167-5.853a4.581,4.581,0,0,0-1.22,9.08Z" transform="translate(-132.022 -447.264)" fill="#63e4ff"/>
    <path id="Path_263" data-name="Path 263" d="M195.042,696.472c2.5-.427,8.945-6.184,8.945-6.184s-8.006-3.27-10.5-2.842a4.58,4.58,0,1,0,1.56,9.027Z" transform="translate(-148.269 -491.219)" fill="#63e4ff"/>
    <path id="Path_264" data-name="Path 264" d="M232.493,754.451c2.53,0,9.863-4.583,9.863-4.583s-7.335-4.577-9.866-4.577a4.58,4.58,0,0,0,0,9.161Z" transform="translate(-174.566 -531.042)" fill="#63e4ff"/>
    <path id="Path_265" data-name="Path 265" d="M833.49,324.264s10.577-18.736,26.521-24.134a32.615,32.615,0,0,0,16.512-12.353A54.712,54.712,0,0,0,881.387,279" transform="translate(-591.197 -210.241)" fill="none" stroke="#535461" stroke-miterlimit="10" stroke-width="2"/>
    <path id="Path_266" data-name="Path 266" d="M996.438,250.653c-1.816,1.76-10.268,3.582-10.268,3.582s2.075-8.393,3.891-10.156a4.58,4.58,0,1,1,6.378,6.575Z" transform="translate(-696.239 -185.326)" fill="#63e4ff"/>
    <path id="Path_267" data-name="Path 267" d="M980.458,296.583c-2.5.493-10.568-2.571-10.568-2.571s6.3-5.928,8.783-6.412a4.58,4.58,0,1,1,1.785,8.983Z" transform="translate(-685.038 -216.083)" fill="#63e4ff"/>
    <path id="Path_268" data-name="Path 268" d="M930.752,349.771c-2.39-.827-7.822-7.554-7.822-7.554s8.424-1.928,10.821-1.1a4.58,4.58,0,1,1-3,8.656Z" transform="translate(-652.73 -252.834)" fill="#63e4ff"/>
    <path id="Path_269" data-name="Path 269" d="M876.974,379.634c-2.5-.412-8.974-6.137-8.974-6.137s7.984-3.326,10.477-2.914a4.585,4.585,0,0,1-1.488,9.048Z" transform="translate(-614.939 -273.224)" fill="#63e4ff"/>
    <path id="Path_270" data-name="Path 270" d="M947.3,277.023c0,2.53,4.587,9.872,4.587,9.872s4.583-7.332,4.583-9.86a4.58,4.58,0,1,0-9.158,0Z" transform="translate(-669.497 -205.656)" fill="#63e4ff"/>
    <path id="Path_271" data-name="Path 271" d="M887.521,310.845c.755,2.415,7.32,8.047,7.32,8.047s2.184-8.368,1.423-10.783a4.58,4.58,0,0,0-8.736,2.736Z" transform="translate(-628.261 -228.164)" fill="#63e4ff"/>
    <path id="Path_272" data-name="Path 272" d="M834.875,355.106c.337,2.5,5.853,9.164,5.853,9.164s3.56-7.878,3.223-10.384a4.58,4.58,0,1,0-9.076,1.22Z" transform="translate(-592.111 -258.955)" fill="#63e4ff"/>
    <path id="Path_273" data-name="Path 273" d="M996.438,250.653c-1.816,1.76-10.268,3.582-10.268,3.582s2.075-8.393,3.891-10.156a4.58,4.58,0,1,1,6.378,6.575Z" transform="translate(-696.239 -185.326)" opacity="0.25"/>
    <path id="Path_274" data-name="Path 274" d="M980.458,296.583c-2.5.493-10.568-2.571-10.568-2.571s6.3-5.928,8.783-6.412a4.58,4.58,0,1,1,1.785,8.983Z" transform="translate(-685.038 -216.083)" opacity="0.25"/>
    <path id="Path_275" data-name="Path 275" d="M930.752,349.771c-2.39-.827-7.822-7.554-7.822-7.554s8.424-1.928,10.821-1.1a4.58,4.58,0,1,1-3,8.656Z" transform="translate(-652.73 -252.834)" opacity="0.25"/>
    <path id="Path_276" data-name="Path 276" d="M876.974,379.634c-2.5-.412-8.974-6.137-8.974-6.137s7.984-3.326,10.477-2.914a4.585,4.585,0,0,1-1.488,9.048Z" transform="translate(-614.939 -273.224)" opacity="0.25"/>
    <path id="Path_277" data-name="Path 277" d="M947.3,277.023c0,2.53,4.587,9.872,4.587,9.872s4.583-7.332,4.583-9.86a4.58,4.58,0,1,0-9.158,0Z" transform="translate(-669.497 -205.656)" opacity="0.25"/>
    <path id="Path_278" data-name="Path 278" d="M887.521,310.845c.755,2.415,7.32,8.047,7.32,8.047s2.184-8.368,1.423-10.783a4.58,4.58,0,0,0-8.736,2.736Z" transform="translate(-628.261 -228.164)" opacity="0.25"/>
    <path id="Path_279" data-name="Path 279" d="M834.875,355.106c.337,2.5,5.853,9.164,5.853,9.164s3.56-7.878,3.223-10.384a4.58,4.58,0,1,0-9.076,1.22Z" transform="translate(-592.111 -258.955)" opacity="0.25"/>
    <path id="Path_280" data-name="Path 280" d="M835.44,288.874s2.078-21.417,14.453-32.805a32.627,32.627,0,0,0,10.09-17.984,54.693,54.693,0,0,0,.9-9.984" transform="translate(-592.538 -175.222)" fill="none" stroke="#535461" stroke-miterlimit="10" stroke-width="2"/>
    <path id="Path_281" data-name="Path 281" d="M922.428,191.072c-.936,2.346-7.937,7.438-7.937,7.438s-1.5-8.515-.558-10.861a4.582,4.582,0,1,1,8.5,3.432Z" transform="translate(-646.325 -145.42)" fill="#63e4ff"/>
    <path id="Path_282" data-name="Path 282" d="M923.962,237.128c-2.069,1.454-10.7,1.931-10.7,1.931s3.364-7.969,5.432-9.423a4.58,4.58,0,1,1,5.27,7.488Z" transform="translate(-646.078 -175.651)" fill="#63e4ff"/>
    <path id="Path_283" data-name="Path 283" d="M895.375,306.26c-2.521.212-10.215-3.744-10.215-3.744s6.927-5.179,9.448-5.392a4.581,4.581,0,1,1,.768,9.13Z" transform="translate(-626.745 -222.699)" fill="#63e4ff"/>
    <path id="Path_284" data-name="Path 284" d="M859.8,355.052c-2.449.624-10.7-1.956-10.7-1.956s5.95-6.275,8.4-6.911a4.58,4.58,0,0,1,2.3,8.867Z" transform="translate(-601.936 -256.361)" fill="#63e4ff"/>
    <path id="Path_285" data-name="Path 285" d="M883.318,237.832c1.023,2.312,8.181,7.176,8.181,7.176s1.217-8.562.193-10.874a4.58,4.58,0,0,0-8.374,3.707Z" transform="translate(-625.237 -177.566)" fill="#63e4ff"/>
    <path id="Path_286" data-name="Path 286" d="M841.939,292.237c1.669,1.9,9.95,4.39,9.95,4.39s-1.4-8.534-3.067-10.434a4.58,4.58,0,1,0-6.883,6.044Z" transform="translate(-596.226 -214.118)" fill="#63e4ff"/>
    <path id="Path_287" data-name="Path 287" d="M812.251,354.789c1.323,2.153,9.064,6.006,9.064,6.006s.065-8.646-1.248-10.8a4.58,4.58,0,0,0-7.8,4.8Z" transform="translate(-576.177 -257.662)" fill="#63e4ff"/>
    <path id="Path_288" data-name="Path 288" d="M784.44,141.425c.518-1.9,1.142-3.81,1.579-5.735C785.495,137.615,784.867,139.531,784.44,141.425Z" transform="translate(-557.451 -111.645)" fill="url(#linear-gradient)"/>
    <path id="Path_289" data-name="Path 289" d="M414.252,106.742c-.044-.075-.075-.15-.109-.218h0c0-.031-.031-.056-.044-.087a1.956,1.956,0,0,1-.209.084c-.137.053-.278.1-.421.144s-.2.062-.312.087a1.82,1.82,0,0,1-.278.072l.025.056c.115-.025.228-.047.343-.078l.031.387c.131,0,.253-.019.371-.019a1.529,1.529,0,0,1,.168,0h.624C414.377,107.029,414.308,106.882,414.252,106.742Zm63.339,100.821c-1.466-1.975-4.393-23.173-4.393-23.173s-5.757-15.073-4.187-21.089-4.287-21.407-4.287-21.407-3.869-1.682-4.078-4.178c0,0-15.8-4.992-16.537-8.736-.6-3.07-10.4-5.273-13.916-5.969-1.073-4.331-2.153-8.371-2.949-10.577-.215-.686-.418-1.279-.605-1.747-1.345-3.432-5.5-3.744-8.515-3.47a4.643,4.643,0,0,0-.715-1.632.9.9,0,0,0-.284-.434,1.663,1.663,0,0,0-.206-.15.987.987,0,0,0-.212-.268,1.5,1.5,0,0,0-.281-.2,1.871,1.871,0,0,0-.225-.1,3,3,0,0,0-.559-.153,4.6,4.6,0,0,0-.674-.087,4.1,4.1,0,0,0,1.438-1.051,3,3,0,0,0,.59-1.086,3.2,3.2,0,0,0,.131-1.023,2.645,2.645,0,0,1-.281.4c.131-1.382-.6-2.786-1.017-4.162a12.315,12.315,0,0,1-.275-5.507h0c.418-2.764,1.454-5.56,2.156-8.374a.2.2,0,0,0,0-.047,21.741,21.741,0,0,0,.68-4.271A18.85,18.85,0,0,0,416.57,70.6c-1.064-2.349-2.633-4.661-5.036-5.616-1.785-.721-3.785-.605-5.707-.724-4.312-.268-8.424-1.785-12.524-3.164s-8.318-2.633-12.633-2.393-8.755,2.321-10.724,6.14a38.455,38.455,0,0,1-1.729,3.638c-1.4,2.112-3.9,3.17-5.987,4.627a11.841,11.841,0,0,0-4.68,5.994,8,8,0,0,0-.169,4.1h0a7.355,7.355,0,0,0,.262.9A6.412,6.412,0,0,0,359,86.33a6.617,6.617,0,0,0,1.541,1.2h0a9.07,9.07,0,0,0,2.278.886c-.028.094-.056.193-.087.29-.05.159-.094.312-.14.484-.1.384-.2.774-.281,1.167a.365.365,0,0,0,0,.084,25.482,25.482,0,0,0-.574,5.4,24.937,24.937,0,0,0,.131,2.571h0a26.007,26.007,0,0,0,24.615,23.3c.443.022.889.034,1.342.034h.624c.2.268.4.543.593.811s.365.543.53.811l-.452-.468h0l-.452-.415a3.676,3.676,0,0,1-.409.471,7.582,7.582,0,0,0-.9-.256h0a11.562,11.562,0,0,0-5.863.39,25.64,25.64,0,0,0-8.718,4.977l-16.633,9.984-9,5.473-3.242,7.925s-2.437,9.417-5.148,20.206c-.106.031-.209.062-.312.1a5.836,5.836,0,0,0-.661-.037,6.081,6.081,0,0,0-6.091,5.838c-5.392,6.552-5.7,13.1-4.431,16.112h0a4.293,4.293,0,0,0,.431.8,75.742,75.742,0,0,1,3.953,7.579c-.041.271-.066.5-.078.671a1.659,1.659,0,0,0,0,.168s.936,14.137-2.184,18.19c-.683.883-.58,2.044,0,3.329h0c2.091,4.624,10.356,10.8,10.356,10.8s9.913-.053,15.435-.655c-.016.555-.028,1.108-.041,1.647-.125,5.454-.125,10.025-.125,10.025l-.206,5.719s-1.872,12.053-2.808,15.376c-.59,2.084.09,21.382.683,35.569h97.666c1.148-8.393-.471-33.894-.471-33.894a67,67,0,0,1-1.594-12.34.047.047,0,0,1,0-.041c0-.5,0-.992.019-1.473l.708-.025,1.273-.044h.115s.031-.119.1-.312h0a5.964,5.964,0,0,1,.683-1.363,3.382,3.382,0,0,1,2.668-1.641,7.225,7.225,0,0,0,3.03-1.441.056.056,0,0,0,.025,0c3.317-2.243,7.7-6.384,8.764-7.064,1.463-.936,8.471-7.176,8.471-7.176s1.045-1.323,2.159-2.917l.041-.056c1.385-2,2.858-4.384,2.5-5.136-.624-1.348.418-4.571.418-4.571C482.5,217.432,479.057,209.538,477.591,207.563Zm-60.334-95.969a1.247,1.247,0,0,1,.056.287c-.078-.1-.156-.212-.234-.312l-.075-.1-.053-.075.119-.162v.022h0a1.082,1.082,0,0,1,.187.34Zm-1.048-2.764c-.34.069-.608.131-.783.178-.222-.393-.434-.786-.624-1.186a9.048,9.048,0,0,1,1.407,1.008Zm-.587.493a.069.069,0,0,1,0-.019l.025.019h0c.128.084.253.165.368.25h0c.1.075.2.147.29.222a2.979,2.979,0,0,1-.2.312c-.109-.172-.212-.337-.312-.509A1.125,1.125,0,0,1,415.622,109.322Zm-1.872-3.85a9.231,9.231,0,0,1,1.813,0h0a1.371,1.371,0,0,1,.234.028h0a2.593,2.593,0,0,1,.5.128,3.626,3.626,0,0,1,.658,1.75l-.168.025-.165.031c-.312.053-.624.106-.867.156l-.312.066c-.415.09-.655.159-.665.162-.041-.084-.081-.162-.125-.243-.069-.134-.14-.271-.2-.406s-.144-.287-.209-.427c-.044-.075-.075-.15-.109-.218h0c0-.031-.031-.056-.044-.087a.748.748,0,0,1-.047-.1c-.19-.387-.365-.774-.534-1.154-.019-.037-.034-.078-.05-.115l.237-.016v.081ZM339.306,299.026a77.4,77.4,0,0,0-1.3-14.39c-.4-2.006-.811-4.012-1.229-5.984-.106-.493-.209-.98-.312-1.466l-.961.128h-.087c-2.621-12.359-5.36-23.248-5.36-23.248s-5.441-20.777-4.811-22.434a4.013,4.013,0,0,0-.253-1.647c-1.317-4.724-6.814-17.741-8.736-22.19h0a.175.175,0,0,0-.022-.056h0c-.312-.746-.537-1.248-.605-1.395l.452-6.64.025-.4.059-.849-.025-.022.025-.393a45.52,45.52,0,0,0-12.793-6.705c-.312-.112-.643-.222-.97-.328.4-2.686.936-5.719,1.632-8.674.066-.3.137-.583.212-.874h0c.065-.29.14-.571.215-.855.119-.462.246-.917.378-1.367.434-.137.861-.29,1.282-.452l.162-.062a23.027,23.027,0,0,0,14.041-26.833h0a22.9,22.9,0,0,0-4.019-8.471h0c-.144-.193-.3-.387-.449-.577s-.337-.4-.509-.6c.9-2.05,1.966-4,2.053-5.994a6.155,6.155,0,0,0,0-.758h0v-.031a6.408,6.408,0,0,0-2.006-3.944,13.412,13.412,0,0,0-7.429-3.5c-2.749-.487-5.551-.5-8.315-.827-4.583-.549-9.048-1.963-13.632-2.4a32.39,32.39,0,0,0-16.484,2.808c-3.41,1.56-6.864,4.287-7.07,8.028-.168,3.092,1.984,6.056,1.442,9.111-.54,3-3.6,5.363-3.329,8.4a6.027,6.027,0,0,0,1.473,3.192h0c.262.312.54.624.827.936a13.5,13.5,0,0,1,2.955,3.788c.025.062.05.125.072.187a3.52,3.52,0,0,1-1.014,4.153.047.047,0,0,1,.016.022h0c.019.025.037.044.053.069a.022.022,0,0,0,0-.016,3.413,3.413,0,0,0,1.782,1.111l.265.081c-.215.234-.418.477-.624.733l-.134.178a12.983,12.983,0,0,0-.936,1.451c-.159.281-.312.562-.44.842a10.584,10.584,0,0,0-.92,2.705c-.334,2.066.137,4.218-.368,6.24-.624,2.5-2.6,4.412-3.713,6.73-2.109,4.368-.914,9.495-.49,14.318.577,6.552-.359,13.133-1.292,19.641q-.743,5.192-1.485,10.393l-3.744,26.109c-.456,3.189-1,6.552-3.12,9.014h.022a.027.027,0,0,1-.022.025,6.521,6.521,0,0,0,2.009.518h0c2.774.278,5.713-1.064,8.209-2.53a38.794,38.794,0,0,0,5.594-3.928q-.384,1.4-.824,3.055a.172.172,0,0,1,0,.031h0c-3.523,13.417-9.189,38.013-9.189,38.013s-.515,1.07-1.183,2.665h87.988c-1.03-1.248-1.988-2.443-2.736-3.407ZM274.158,174.97c.022-.037.037-.072.059-.106v.677h0a2.311,2.311,0,0,1-.05.384v.028l.312.115.362.15h0q3.208,1.267,6.5,2.293c.225.072.452.14.68.206l.047.387c.056.4.109.8.159,1.2v.031c.14,1.114.278,2.225.4,3.31,0,0-5.729-2.184-5.657,1.133a1.616,1.616,0,0,0,0,.178,1.479,1.479,0,0,0,0,.237,16.535,16.535,0,0,0,1.023,4.9.221.221,0,0,1-.05.087,1.707,1.707,0,0,0-.137.964,9.479,9.479,0,0,0,.131,1.666c-.168.1-.334.206-.5.312h0c-.125.078-.243.165-.365.253a46.338,46.338,0,0,0-2.992-7.713c-.858-1.766-1.822-3.607-1.813-5.544a3.134,3.134,0,0,1,.016-.381,6.551,6.551,0,0,1,.318-1.651c.072-.2.15-.4.237-.6a14.7,14.7,0,0,1,.683-1.367h0c.162-.293.334-.583.5-.877.053-.087.1-.178.153-.265Zm140.094-68.228c-.044-.075-.075-.15-.109-.218h0c0-.031-.031-.056-.044-.087a1.956,1.956,0,0,1-.209.084c-.137.053-.278.1-.421.144s-.2.062-.312.087l-.278.072.025.056c.115-.025.228-.047.343-.078l.031.387c.131,0,.253-.019.371-.019h.793C414.377,107.029,414.308,106.882,414.252,106.742Z" transform="translate(-189.585 -58.66)" fill="url(#linear-gradient-2)"/>
    <path id="Path_290" data-name="Path 290" d="M527.465,355.95l-1.872.827s-12.2,47.407-12.2,51.239,25.875,25.151,25.875,25.151l4.037-27.251S537.505,343.423,527.465,355.95Z" transform="translate(-370.972 -262.039)" fill="#e8f5ff"/>
    <path id="Path_291" data-name="Path 291" d="M693.821,229.423l-10.811-5.641a21.656,21.656,0,0,0-3.17-7.223,16.091,16.091,0,0,0-6.306-5.7c-6.624-2.97,28.019-18.562,28.019-18.562a56.341,56.341,0,0,0,1.925,5.523c1.785,4.406,4.746,10.1,8.562,11.725C718.526,212.309,693.821,229.423,693.821,229.423Z" transform="translate(-480.57 -150.592)" fill="#ffc1c7"/>
    <path id="Path_292" data-name="Path 292" d="M703.478,197.823a25.828,25.828,0,0,1-23.638,18.736,16.092,16.092,0,0,0-6.306-5.7c-6.624-2.97,28.019-18.562,28.019-18.562A56.356,56.356,0,0,0,703.478,197.823Z" transform="translate(-480.57 -150.592)" opacity="0.1"/>
    <path id="Path_293" data-name="Path 293" d="M660.646,127.866a25.691,25.691,0,1,1-7.526-18.283,25.814,25.814,0,0,1,7.526,18.283Z" transform="translate(-436.764 -88.508)" fill="#ffc1c7"/>
    <path id="Path_294" data-name="Path 294" d="M643.661,231.653l-7.039,16.424-6.209,10.9H610.537l-5.8-14.9,2.349-15.457h15.179l9.8-.552,3.31-1.1,2.134,1.211Z" transform="translate(-416.054 -156.135)" fill="#575a89"/>
    <path id="Path_295" data-name="Path 295" d="M741.086,230.464s4.39.936.459,4.159S724.05,248.1,724.05,248.1s4.764,4.243,3.779,9.214l15.785-8.8,2.808-14.078S746.736,230.2,741.086,230.464Z" transform="translate(-515.904 -176.841)" opacity="0.1"/>
    <path id="Path_296" data-name="Path 296" d="M704.939,287,694.9,288.657s2.072,7.66,1.036,9.835a1.466,1.466,0,0,0-.078.209l-4.1,11.073,3.07,8.7,10.627-14.493-3.622-5.485s3.828-5.073,6.106-6.833S704.939,287,704.939,287Z" transform="translate(-493.688 -215.745)" opacity="0.1"/>
    <path id="Path_297" data-name="Path 297" d="M704.939,285.63,694.9,287.284s2.072,7.66,1.036,9.835a1.463,1.463,0,0,0-.078.209l-4.1,11.073,3.07,8.7,10.627-14.5-3.622-5.485s3.828-5.073,6.106-6.833S704.939,285.63,704.939,285.63Z" transform="translate(-493.688 -214.802)" fill="#dce6f2"/>
    <path id="Path_298" data-name="Path 298" d="M741.507,227.814s4.39.936.456,4.159-17.913,14.3-17.913,14.3,5.176,3.417,4.193,8.384l15.785-8.8,2.808-14.078S747.148,227.552,741.507,227.814Z" transform="translate(-515.904 -175.018)" fill="#0d467d"/>
    <path id="Path_299" data-name="Path 299" d="M672.265,273.18s.958,1.791,5.186,5.02c0,0-7.039,3.744-4.346,9.008L662.337,284.4l-1.657-5.176Z" transform="translate(-472.306 -206.237)" opacity="0.1"/>
    <path id="Path_300" data-name="Path 300" d="M670.942,271.86s.958,1.791,5.186,5.02c0,0-7.039,3.725-4.346,9l-10.764-2.808L659.36,277.9Z" transform="translate(-471.398 -205.329)" fill="#0d467d"/>
    <path id="Path_301" data-name="Path 301" d="M700.6,292.982l-7.039,16.424-6.2,10.9H667.477l-5.8-14.9,2.346-15.457h4.222c-.069,3.607,1.248,7.844,1.164,9.42-.144,2.59,3.863,16.562,3.863,16.562s8.384-13.56,11.694-14.768c2.081-.758,6.49-7.067,9.482-11.66Z" transform="translate(-472.994 -217.465)" opacity="0.1"/>
    <path id="Path_302" data-name="Path 302" d="M653.263,365.817l-.714.9s5.176,25.981,3.744,31.882a16.756,16.756,0,0,0-.415,3.239v.047c-.253,6,1.56,13.794,1.56,13.794s1.448,22.964.624,32.409H561.144c-.568-13.966-1.179-32.059-.624-34.066.936-3.31,2.808-15.32,2.808-15.32l.206-5.691s0-5.5.168-11.629c.072-2.755.178-5.647.331-8.212a43.353,43.353,0,0,1,.849-7.279,16.046,16.046,0,0,0,.4-3.083,1.6,1.6,0,0,1,.019-.3c0-.312.031-.649.044-1V361.2c.059-2.009.037-4.393-.028-6.864v-.409c-.053-1.853-.131-3.744-.218-5.541-.271-5.616-.624-10.365-.624-10.365l-11.9-39.438,3.208-7.9,8.9-5.454,16.459-9.938c8.028-6.6,13.314-5.807,15.329-5.083a5.329,5.329,0,0,1,.574.234c.062.031.112.056.159.084a1.316,1.316,0,0,1,.184.106h0a3.8,3.8,0,0,0-1.4,1.151,5.093,5.093,0,0,0-.864,1.872,8.716,8.716,0,0,0-.222,1.276c-.041.452-.056.92-.056,1.392a24.123,24.123,0,0,0,.265,3.086v.069c.1.73.231,1.445.356,2.115a.14.14,0,0,0,0,.034c.144.783.287,1.507.384,2.131.019.112.034.215.05.312a7.13,7.13,0,0,1,.1,1.248,15.169,15.169,0,0,0,.406,3c.081.412.175.852.278,1.31.14.624.293,1.3.459,2,.09.381.187.774.287,1.164.037.156.078.312.115.471l.062.246c.665,2.643,1.385,5.273,1.828,6.864.262.936.427,1.513.427,1.513a116.49,116.49,0,0,1,8.449-11.922c.056-.062.106-.122.159-.178.371-.427.736-.817,1.086-1.161a6.415,6.415,0,0,1,2-1.5,2.186,2.186,0,0,0,.34-.159c1.535-.871,4.012-4.031,6.331-7.342.228-.312.449-.652.674-.973.515-.743,1.014-1.488,1.485-2.2.362-.546.708-1.076,1.036-1.582,1.56-2.427,2.658-4.237,2.658-4.237l2.165-.1.378-.019h.253l9.832-.456s.424.072,1.123.212a.2.2,0,0,1,.115.025c3.488.693,13.179,2.886,13.772,5.928.724,3.725,16.356,8.7,16.356,8.7.206,2.5,4.034,4.14,4.034,4.14s5.8,15.32,4.246,21.323c-1.532,5.928,3.988,20.593,4.134,21h0l-1.058,1.335Z" transform="translate(-397.928 -203.869)" fill="#e8f5ff"/>
    <path id="Path_303" data-name="Path 303" d="M749.669,225.547s9.569-2.714,11.744,2.874,7.039,28.156,7.039,28.156-12.63,2.381-15.941,0a9.538,9.538,0,0,0-6.73-1.76l-7.142,4.864-2.109-.624s11.426-16.986,13.91-22.758S753.762,227.946,749.669,225.547Z" transform="translate(-524.49 -173.012)" opacity="0.1"/>
    <path id="Path_304" data-name="Path 304" d="M748.366,221.547s9.576-2.715,11.76,2.874,7.039,28.156,7.039,28.156-12.627,2.381-15.941,0a9.529,9.529,0,0,0-6.727-1.76l-7.148,4.864-2.109-.624s11.426-16.986,13.91-22.758S752.46,223.952,748.366,221.547Z" transform="translate(-523.602 -170.26)" fill="#e8f5ff"/>
    <path id="Path_305" data-name="Path 305" d="M571.194,511.55s7.142,1.76,8.49,5.8-5.279,4.14-5.279,4.14S570.367,514.346,571.194,511.55Z" transform="translate(-410.664 -370.232)" opacity="0.1"/>
    <path id="Path_306" data-name="Path 306" d="M625.7,607.09s-17.491,35.816-13.454,39.233S625.7,607.09,625.7,607.09Z" transform="translate(-438.568 -435.962)" opacity="0.1"/>
    <path id="Path_307" data-name="Path 307" d="M734,522.5s13.975,34.789,11.179,40.162,6,0,6,0Z" transform="translate(-522.749 -377.766)" opacity="0.1"/>
    <path id="Path_308" data-name="Path 308" d="M717.1,632.64s-47.2,2.278-33.432,16.977,42.025.624,42.025.624Z" transform="translate(-486.39 -453.54)" fill="#ffc1c7"/>
    <path id="Path_309" data-name="Path 309" d="M662.551,127.873a25.691,25.691,0,0,1-1.956,9.866c-.434.05-.867.081-1.286.1-.624-1.37-.29-2.952-.278-4.459s-.543-3.279-1.994-3.685c-2.892-.814-4.889,4.593-7.741,3.616-2.184-.743-1.613-4.056-2.871-5.969-1-1.513-2.989-1.941-4.54-2.889-3.3-2.025-3.2-5.264-4.73-8.328-1.6-3.211-4.992-2.262-7.935-.368-2.234,1.442-4.162,3.373-6.552,4.521a16.209,16.209,0,0,1-6.686,1.413,14.692,14.692,0,0,1-4.193-.443,25.813,25.813,0,0,1,50.758,6.624Z" transform="translate(-438.67 -88.515)" opacity="0.1"/>
    <path id="Path_310" data-name="Path 310" d="M617.462,90.187c-2.237,1.441-4.162,3.37-6.552,4.524a16.256,16.256,0,0,1-6.686,1.41c-2.808.062-5.832-.431-7.75-2.459a7.477,7.477,0,0,1-1.438-7.208,11.706,11.706,0,0,1,4.633-5.969c2.1-1.476,4.537-2.5,5.928-4.608a37.252,37.252,0,0,0,1.7-3.622c1.956-3.8,6.356-5.863,10.608-6.119s8.468,1.011,12.518,2.384,8.131,2.883,12.406,3.167c1.9.119,3.881,0,5.647.721,2.374.964,3.931,3.27,4.992,5.616a18.778,18.778,0,0,1,1.8,8.424c-.262,6.169-4.337,12.222-2.546,18.131.474,1.576,1.364,3.192.889,4.768-.693,2.3-3.66,2.824-6.059,2.933-.624-1.37-.29-2.955-.278-4.459s-.543-3.279-1.991-3.685c-2.9-.808-4.892,4.59-7.738,3.616-2.169-.746-1.607-4.056-2.867-5.969-1-1.516-2.992-1.941-4.54-2.889-3.3-2.025-3.2-5.264-4.73-8.328C623.8,87.341,620.407,88.29,617.462,90.187Z" transform="translate(-426.9 -63.771)" fill="#201a1a"/>
    <path id="Path_311" data-name="Path 311" d="M509.894,513.762l-2.381.83s.936,14.078-2.184,18.115,10.247,14.075,10.247,14.075,18.321-.1,18.839-1.56-.936-26.084-.936-26.084-9.835-3.832-9.008-9.938c0,0-3,14.387-7.451,13.766S507.519,518.629,509.894,513.762Z" transform="translate(-365.102 -368.615)" fill="#e8f5ff"/>
    <ellipse id="Ellipse_48" data-name="Ellipse 48" cx="6.281" cy="5.744" rx="6.281" ry="5.744" transform="translate(146.452 147.218)" opacity="0.1"/>
    <path id="Path_312" data-name="Path 312" d="M519.825,457.154s-1.248-38.091-12.112-29.6-10.97,18.637-8.9,21.635,8.7,18.009,8.7,18.009h0a7.591,7.591,0,0,0,11.232-4.992Z" transform="translate(-360.224 -311.593)" fill="#ffc1c7"/>
    <path id="Path_313" data-name="Path 313" d="M599.488,213.727a.917.917,0,0,0-.281-.431c-.537-.49-1.691-.661-3.432-.512l.072.824c2.321-.2,2.78.262,2.839.34v.078l.072.1a3.482,3.482,0,0,1,.624,2.746c-.509,2.543-3.632,4.568-3.663,4.59l-.075.044-.047.072c-1.348,2-8.97,7.644-10.964,9.1l-.175-.2c-.892.774-8.736,7.641-9.161,10.271-.275,1.651-2.134,2.29-2.808,2.468a17.631,17.631,0,0,1-4.221-4.437c-1.126-1.938,3.407-5.719,3.807-7.2l-.624-.64c-.065.237-5.888,5.679-4.268,8.459a18.521,18.521,0,0,0,4.5,4.771c-.265,2.409-1.916,16.552-4.452,19.9-3.151,4.165-5.8,25.158-5.507,32.487.259,6.512-1.442,18.811-7.12,24.094a9.1,9.1,0,0,1-7.51,2.5h-.137a22.16,22.16,0,0,1-15.239-4.992c-5.663-4.764-8.871-12.54-9.538-23.117h-.137l-.056-3.08a6.006,6.006,0,1,0-.9.072h.069l.056,3.061-.275.019c.686,10.92,4.056,19,9.984,23.988a23.089,23.089,0,0,0,16.1,5.27,11.6,11.6,0,0,0,1.248.069,10.234,10.234,0,0,0,7.176-2.886c5.981-5.569,7.8-18.321,7.516-25.055-.312-7.766,2.468-28,5.257-31.688,2.733-3.616,4.39-17.707,4.68-20.437.989-.278,3.226-1.154,3.607-3.432.275-1.647,5.513-6.724,8.736-9.535l-.1-.112a121.432,121.432,0,0,0,9.8-7.825c.83-.8,1.654-1.591,2.515-2.349a8.052,8.052,0,0,0,2.7-4.1A4.259,4.259,0,0,0,599.488,213.727Z" transform="translate(-372.115 -164.649)" opacity="0.1"/>
    <path id="Path_314" data-name="Path 314" d="M685.011,283.248a19.092,19.092,0,0,1-4.8-4.992c-1.616-2.78,4.206-8.218,4.268-8.456l.624.64c-.4,1.473-4.93,5.257-3.8,7.192a18.135,18.135,0,0,0,4.44,4.6Z" transform="translate(-485.551 -203.911)" fill="#353146"/>
    <path id="Path_315" data-name="Path 315" d="M735.687,230.375l-.487-.671c.1-.072,9.9-7.161,11.445-9.454l.05-.069.072-.047c.031-.022,3.154-2.044,3.663-4.59a3.46,3.46,0,0,0-.624-2.743l-.072-.106v-.075c-.062-.081-.521-.54-2.842-.34l-.072-.827c1.744-.15,2.9.022,3.432.512a.936.936,0,0,1,.284.434,4.262,4.262,0,0,1,.705,3.31,8.006,8.006,0,0,1-2.7,4.1c-.858.758-1.685,1.56-2.512,2.349A131.081,131.081,0,0,1,735.687,230.375Z" transform="translate(-523.575 -163.734)" fill="#e8f5ff"/>
    <rect id="Rectangle_146" data-name="Rectangle 146" width="0.827" height="5.027" transform="translate(148.638 126.253) rotate(-1.05)" fill="#e8f5ff"/>
    <circle id="Ellipse_49" data-name="Ellipse 49" cx="6.037" cy="6.037" r="6.037" transform="translate(142.533 114.925)" fill="#63e4ff"/>
    <circle id="Ellipse_50" data-name="Ellipse 50" cx="5.014" cy="5.014" r="5.014" transform="translate(143.557 115.948)" fill="#e8f5ff"/>
    <path id="Path_316" data-name="Path 316" d="M560,362.285a11.583,11.583,0,0,1-1.248-.066,23.123,23.123,0,0,1-16.1-5.27c-5.928-4.992-9.292-13.061-9.984-23.991l1.248-.078c.668,10.577,3.875,18.356,9.541,23.117a22.247,22.247,0,0,0,15.236,4.992h.137a9.12,9.12,0,0,0,7.513-2.5c5.676-5.282,7.376-17.582,7.117-24.094-.312-7.335,2.337-28.328,5.491-32.49,2.761-3.647,4.474-20.087,4.493-20.253l.047-.468.462-.081c.028,0,2.724-.512,3.061-2.527.437-2.627,8.268-9.495,9.158-10.271l.814.936c-3.236,2.808-8.474,7.888-8.736,9.538-.381,2.284-2.618,3.158-3.6,3.432-.312,2.733-1.956,16.821-4.68,20.437-2.789,3.685-5.569,23.922-5.257,31.688.268,6.733-1.532,19.488-7.513,25.055A10.237,10.237,0,0,1,560,362.285Z" transform="translate(-384.23 -202.886)" fill="#353146"/>
    <g id="Group_226" data-name="Group 226" transform="translate(168.048 22.244)" opacity="0.1">
      <path id="Path_317" data-name="Path 317" d="M783,148.54c.512-1.891,1.129-3.794,1.56-5.71C784.045,144.755,783.424,146.649,783,148.54Z" transform="translate(-724.509 -138.802)"/>
      <path id="Path_318" data-name="Path 318" d="M648.807,154.516c-.624-1.37-.29-2.955-.278-4.459s-.543-3.264-1.991-3.685c-2.9-.808-4.892,4.593-7.738,3.616-2.184-.746-1.607-4.056-2.867-5.969-1-1.516-2.989-1.941-4.537-2.889-3.3-2.025-3.2-5.264-4.73-8.328-1.607-3.214-4.992-2.265-7.938-.368-2.237,1.442-4.162,3.373-6.552,4.524a16.256,16.256,0,0,1-6.686,1.41c-2.792.066-5.831-.431-7.75-2.459a7.244,7.244,0,0,1-1.707-5.991c-.053.147-.1.293-.147.44a7.5,7.5,0,0,0,1.438,7.208c1.919,2.028,4.958,2.521,7.75,2.459a16.27,16.27,0,0,0,6.69-1.41c2.4-1.154,4.321-3.083,6.552-4.524,2.945-1.9,6.334-2.846,7.938.368,1.529,3.064,1.432,6.3,4.73,8.328,1.56.936,3.541,1.373,4.54,2.889,1.248,1.919.7,5.223,2.867,5.969,2.842.973,4.839-4.424,7.735-3.616,1.448.406,2.006,2.184,1.991,3.685s-.34,3.089.278,4.459c2.4-.109,5.367-.624,6.062-2.933a3.358,3.358,0,0,0,.131-1.02C653.575,153.97,650.966,154.419,648.807,154.516Z" transform="translate(-595.536 -129.92)"/>
    </g>
    <path id="Path_319" data-name="Path 319" d="M833.572,377.648l3.622,3.832s2.9,21.114,4.346,23.089,4.867,9.832,1.657,15.732c0,0-1.036,3.211-.415,4.555s-4.655,8.075-4.655,8.075-6.936,6.209-8.387,7.142-9.108,8.384-11.694,8.487-3.432,3.314-3.432,3.314l-14.6.518s-8.062-.421-9.816.718c0,0,.936-12.318-8.072-20.393l11.488-4.14s4.349-1.872,5.694-3.828a7.029,7.029,0,0,1,3.432-2.587s3.208-2.278,3.31-3.52,3.922-2.764,3.922-2.764l-2.162-18.456,1.139-30.64s3.622-25.672,11.282-24.222S833.572,377.648,833.572,377.648Z" transform="translate(-555.862 -253.928)" opacity="0.1"/>
    <path id="Path_320" data-name="Path 320" d="M837.572,377.648l3.622,3.832s2.9,21.114,4.346,23.089,4.867,9.832,1.657,15.732c0,0-1.033,3.211-.412,4.555s-4.658,8.075-4.658,8.075-6.936,6.209-8.387,7.142-9.108,8.384-11.694,8.487-3.432,3.314-3.432,3.314l-14.6.518s-8.069-.421-9.816.718c0,0,.936-12.318-8.072-20.393l11.488-4.14s4.349-1.872,5.694-3.828a7.03,7.03,0,0,1,3.432-2.587s3.208-2.278,3.31-3.52,3.922-2.764,3.922-2.764l-2.162-18.456,1.139-30.64s3.622-25.672,11.282-24.222S837.572,377.648,837.572,377.648Z" transform="translate(-558.614 -253.928)" fill="#e8f5ff"/>
    <path id="Path_321" data-name="Path 321" d="M907.84,551.965s10.661-2.808,13.457.624S907.84,551.965,907.84,551.965Z" transform="translate(-642.349 -397.293)" opacity="0.1"/>
    <path id="Path_322" data-name="Path 322" d="M899.88,569.44c3.622,2.537,14.8,2.64,14.8,2.64Z" transform="translate(-636.872 -410.06)" opacity="0.1"/>
    <path id="Path_323" data-name="Path 323" d="M917.46,610.08c.312.1,7.685,7.972,10.78,5.591S917.46,610.08,917.46,610.08Z" transform="translate(-648.967 -438.02)" opacity="0.1"/>
    <path id="Path_324" data-name="Path 324" d="M599.22,398.42s2.165,14.908,1.1,20.98,2.827,13.594,2.827,13.594Z" transform="translate(-430.022 -292.4)" opacity="0.1"/>
    <path id="Path_325" data-name="Path 325" d="M380.3,411.593c-2.5,1.956-4.318,6.587-5.638,11.676a125.6,125.6,0,0,0-3.055,19.17s-19.875-4.555-18.427-6.624c.911-1.3-.312-11.1-1.332-18.212-.608-4.2-1.151-7.46-1.151-7.46S387.137,406.208,380.3,411.593Z" transform="translate(-259.044 -299.511)" fill="#ffccd0"/>
    <path id="Path_326" data-name="Path 326" d="M380.3,410.266c-2.5,1.959-4.318,6.587-5.638,11.676a22.933,22.933,0,0,1-22.814-5.663c-.608-4.2-1.151-7.463-1.151-7.463S387.137,404.884,380.3,410.266Z" transform="translate(-259.044 -298.599)" opacity="0.1"/>
    <path id="Path_327" data-name="Path 327" d="M378.432,330.105a22.989,22.989,0,1,1-5.058-14.378A22.989,22.989,0,0,1,378.432,330.105Z" transform="translate(-246.488 -229.589)" fill="#ffccd0"/>
    <path id="Path_328" data-name="Path 328" d="M520.962,787.911h-6.552l-.552-11.573-.577-11.978s1.488-.222,3.86-.552l.958-.128h.078c.518,2.431,1.03,4.927,1.523,7.42a76.233,76.233,0,0,1,1.276,13.417v.917C520.993,786.267,520.974,787.1,520.962,787.911Z" transform="translate(-370.897 -543.694)" opacity="0.1"/>
    <path id="Path_329" data-name="Path 329" d="M352.682,598.926H270.51c.356-.808.593-1.3.593-1.3s6.574-28.761,9.916-40.93a.157.157,0,0,0,0-.031,48.673,48.673,0,0,1,1.51-4.883h0a1.671,1.671,0,0,1,.147-.312c1.654-2.69,3.725-5.588.827-9.729s-1.872-22.359-1.872-22.359,3.52-15.529,7.245-23.81a11.14,11.14,0,0,1,2.365-3.432,9.679,9.679,0,0,1,1.036-.88h0a9.086,9.086,0,0,1,.867-.577l.059-.037a12.518,12.518,0,0,1,5.1-1.582,14.536,14.536,0,0,1,3.822.106,57.046,57.046,0,0,1,14.721,4.056c10.418,4.577,13.573,10.711,13.635,10.839h0l.025.053c.418.977,6.534,15.254,8.736,21.916a9.344,9.344,0,0,1,.758,3.289c-.624,1.654,4.761,22.356,4.761,22.356s2.5,9.984,4.992,21.688c.109.487.212.973.312,1.466.446,2.125.889,4.29,1.317,6.452a75.847,75.847,0,0,1,1.276,13.51Q352.722,596.917,352.682,598.926Z" transform="translate(-203.874 -354.71)" fill="#fdc24c"/>
    <path id="Path_330" data-name="Path 330" d="M345.649,464.863s-5.669-2.184-5.6,1.13,1.382,4.9.967,5.382.206,3.382.206,3.382,7.66,0,11.179,1.585,16.493,4.761,18.15,5.729,7.8,5.3,7.8,5.3l.552-8.212a46.85,46.85,0,0,0-16.768-7.935A66.869,66.869,0,0,1,345.649,464.863Z" transform="translate(-251.715 -337.626)" opacity="0.1"/>
    <path id="Path_331" data-name="Path 331" d="M345.649,463.533s-5.669-2.184-5.6,1.129,1.382,4.9.967,5.382.206,3.382.206,3.382,7.66,0,11.179,1.588,16.493,4.761,18.15,5.725,7.8,5.3,7.8,5.3l.559-8.187a46.85,46.85,0,0,0-16.768-7.935A66.346,66.346,0,0,1,345.649,463.533Z" transform="translate(-251.715 -336.711)" fill="#6cd1d9"/>
    <path id="Path_332" data-name="Path 332" d="M412.85,528.43s10.833,11.729,10.281,14.977S412.85,528.43,412.85,528.43Z" transform="translate(-301.802 -381.845)" opacity="0.1"/>
    <path id="Path_333" data-name="Path 333" d="M435.411,741.85s-4.209,8.559-1.931,8.006S435.411,741.85,435.411,741.85Z" transform="translate(-315.53 -528.676)" fill="none"/>
    <path id="Path_334" data-name="Path 334" d="M332.257,664.22s-7.941,7.317-10.281,7.732,1.794,1.794,4.484.693,8.424-4,8.424-4Z" transform="translate(-238.806 -475.267)" opacity="0.1"/>
    <path id="Path_335" data-name="Path 335" d="M473.354,786.287H454.836c-2.59-2.247-5.039-4.328-6.6-5.579a21.537,21.537,0,0,1-5.445-7.323c-.259-.54-.484-1.045-.674-1.5a25.079,25.079,0,0,1-.9-2.418l13.713-8.143a21.446,21.446,0,0,1,2.131,2.084l.165.19a5.631,5.631,0,0,1,1.491,2.755c.069.974,2.777,4.74,5.544,8.356,2.808,3.679,5.685,7.2,5.875,7.432h0s.474.646,1.248,1.638C471.935,784.493,472.608,785.354,473.354,786.287Z" transform="translate(-321.32 -542.071)" fill="#ffccd0"/>
    <path id="Path_336" data-name="Path 336" d="M373.4,315.753a13.375,13.375,0,0,0-1.335,4.68c-.246,4.774.153,15.448-5.133,17.844-2.618,1.179-5.42-1.41-8.29-1.473a6.74,6.74,0,0,0-5.22,2.9,31.427,31.427,0,0,0-2.958,5.435,37.135,37.135,0,0,1-2.867,4.836,12.169,12.169,0,0,1-1.061,1.339A22.983,22.983,0,1,1,373.4,315.766Z" transform="translate(-246.513 -229.615)" opacity="0.1"/>
    <path id="Path_337" data-name="Path 337" d="M317.658,298.582c-.25,4.774.153,15.448-5.136,17.841-2.618,1.179-5.42-1.407-8.29-1.47a6.741,6.741,0,0,0-5.22,2.9,31.225,31.225,0,0,0-2.958,5.438,37.2,37.2,0,0,1-2.867,4.836,7.021,7.021,0,0,1-2.343,2.337c-1.722.9-3.81.393-5.657-.184q-3.594-1.133-7.083-2.552a7.145,7.145,0,0,0,.081-1.061c-.069.131-.144.253-.218.384l-.147.256c-.265.468-.524.936-.761,1.417-.091.184-.178.374-.256.565a7.177,7.177,0,0,0-.583,2.234c-.159,2.081.867,4.056,1.778,5.928,3.5,7.242,5.669,15.71,3.033,23.307-1.142,3.3-3.12,6.24-4.565,9.432a30.474,30.474,0,0,0-2.131,18.028c.721,3.782,2.165,7.526,1.81,11.36-.624,6.6-6.315,11.51-12.016,14.886-3.08,1.816-6.849,3.432-10.119,2,2.084-2.434,2.621-5.8,3.07-8.977q1.844-13,3.7-26,.739-5.176,1.476-10.353c.917-6.484,1.847-13.039,1.273-19.563-.418-4.808-1.6-9.913.487-14.265,1.1-2.306,3.064-4.215,3.676-6.7.5-2.019.034-4.165.365-6.222a10.589,10.589,0,0,1,.911-2.7,13.244,13.244,0,0,1,2.091-3.189,3.57,3.57,0,0,1-2.091-1.276c1.342-.874,1.544-2.842.936-4.321a13.281,13.281,0,0,0-2.92-3.772,7.284,7.284,0,0,1-2.287-4.119c-.265-3.03,2.761-5.376,3.295-8.365.54-3.042-1.594-6-1.423-9.08.2-3.722,3.619-6.427,7-8a31.825,31.825,0,0,1,16.312-2.808c4.549.431,8.952,1.838,13.488,2.384,2.736.312,5.51.343,8.228.824a13.219,13.219,0,0,1,7.354,3.488C323.985,288.713,317.945,293.04,317.658,298.582Z" transform="translate(-192.522 -208.606)" fill="#1d3640"/>
    <path id="Path_338" data-name="Path 338" d="M361.983,625.069c-1.591-.69-4.487-.278-9.457-1.791s-5.928-8.353-5.928-8.353V614.9h0c-.059-.156-.521-1.173-3.647-4.736-3.454-3.934-10.92-23.807-10.92-23.807s-6.621-7.111-6.412-9.732-1.176-9.594-1.039-17.395,14.9-12.974,14.9-12.974c28.434-5.039,21.738,27.741,20.98,30.225s3.176,9.192,3.176,9.192c-.555,2.92,2.278,7.441,2.278,7.441s.686,4,.827,5.52a.934.934,0,0,0,.047.206c.456,1.432,4.168,2.73,5.679,3.52,1.588.83,6.7,8.075,6.7,8.075C380.267,615.758,363.568,625.768,361.983,625.069Z" transform="translate(-241.066 -393.751)" opacity="0.1"/>
    <path id="Path_339" data-name="Path 339" d="M364.64,621.1c-1.588-.693-4.487-.278-9.454-1.794s-5.928-8.349-5.928-8.349v-.022h0c-.056-.159-.521-1.173-3.647-4.736-3.454-3.935-10.92-23.81-10.92-23.81s-6.621-7.108-6.415-9.729-1.173-9.594-1.036-17.388,14.9-12.964,14.9-12.964c28.434-5.039,21.738,27.741,20.98,30.225s3.176,9.192,3.176,9.192c-.555,2.92,2.278,7.442,2.278,7.442s.686,4,.83,5.52a.786.786,0,0,0,.044.206c.456,1.432,4.168,2.73,5.682,3.52,1.585.827,6.7,8.075,6.7,8.075C382.927,611.8,366.228,621.809,364.64,621.1Z" transform="translate(-242.896 -391.033)" fill="#fdc24c"/>
    <path id="Path_340" data-name="Path 340" d="M376.8,598.32s12.421,13.1,15.663,13.1S376.8,598.32,376.8,598.32Z" transform="translate(-277 -429.929)" opacity="0.1"/>
    <path id="Path_341" data-name="Path 341" d="M413.212,738.182c-1.588-.693-4.487-.278-9.454-1.794s-5.928-8.349-5.928-8.349v-.022h0c3.292-2.184,11.629-8.353,14.914-10.608a23.018,23.018,0,0,0,5.3-5.448c.456,1.432,4.168,2.73,5.682,3.52,1.585.827,6.7,8.075,6.7,8.075C431.5,728.877,414.8,738.887,413.212,738.182Z" transform="translate(-291.469 -508.112)" fill="#6cd1d9"/>
    <g id="Group_227" data-name="Group 227" transform="translate(61.488 74.013)" opacity="0.1">
      <path id="Path_342" data-name="Path 342" d="M302,406.238c.016.025.037.047.056.072.094-.119.19-.237.29-.349a2.324,2.324,0,0,1-.346.278Z" transform="translate(-287.026 -371.601)"/>
      <path id="Path_343" data-name="Path 343" d="M276.222,438.339a11.771,11.771,0,0,1,1.925-4.78c-.568-.218-1.136-.44-1.7-.671a7.066,7.066,0,0,0,.081-1.058,12.128,12.128,0,0,0-1.966,4.852c-.159,2.084.867,4.056,1.779,5.928,3.507,7.239,5.669,15.707,3.033,23.307-1.145,3.3-3.12,6.24-4.565,9.432a30.462,30.462,0,0,0-2.128,18.025c.715,3.785,2.162,7.526,1.807,11.36-.624,6.6-6.312,11.51-12.016,14.883-2.331,1.379-5.055,2.643-7.66,2.552a9.437,9.437,0,0,1-.805,1.108c3.273,1.445,7.039-.181,10.119-2,5.707-3.37,11.407-8.268,12.031-14.88.356-3.835-1.092-7.576-1.81-11.36a30.487,30.487,0,0,1,2.122-18.025c1.435-3.189,3.432-6.131,4.565-9.432,2.637-7.6.471-16.069-3.033-23.307C277.1,442.385,276.063,440.423,276.222,438.339Z" transform="translate(-254.01 -389.399)"/>
      <path id="Path_344" data-name="Path 344" d="M372.063,296.714a9.015,9.015,0,0,0-.986-.874c3.782,4.9-1.679,9.073-1.95,14.353-.243,4.774.156,15.451-5.133,17.841-2.615,1.183-5.42-1.407-8.287-1.47a6.754,6.754,0,0,0-5.223,2.9,31.1,31.1,0,0,0-2.955,5.435,37.369,37.369,0,0,1-2.871,4.836,6.845,6.845,0,0,1-2.346,2.34c-1.716.9-3.8.393-5.654-.187q-2.7-.849-5.348-1.872a6.75,6.75,0,0,1-.081.97q3.491,1.423,7.086,2.552c1.847.58,3.935,1.083,5.654.187a7.021,7.021,0,0,0,2.346-2.343,36.76,36.76,0,0,0,2.867-4.833,31.133,31.133,0,0,1,2.958-5.438,6.755,6.755,0,0,1,5.22-2.9c2.871.062,5.676,2.652,8.29,1.47,5.289-2.39,4.886-13.067,5.133-17.841C371.071,306.292,377.112,301.968,372.063,296.714Z" transform="translate(-307.136 -295.84)"/>
    </g>
    <path id="Path_345" data-name="Path 345" d="M310.8,421.474c-.265.468-.524.936-.761,1.417-.091.184-.178.374-.256.565-1.635-1.647-5.616-5.563-7.838-6.777a13.307,13.307,0,0,1,2.09-3.189S309.335,416.289,310.8,421.474Z" transform="translate(-225.504 -302.768)" opacity="0.1"/>
    <path id="Path_346" data-name="Path 346" d="M310.952,419.4c-1.226-5.551-6.911-8.555-6.911-8.555a13.244,13.244,0,0,0-2.09,3.189c2.343,1.282,6.661,5.582,8.094,7.039Z" transform="translate(-225.504 -300.945)" fill="#6cd1d9"/>
  </g>
</svg>
