<svg xmlns="http://www.w3.org/2000/svg" width="281.785" height="444.386" viewBox="0 0 281.785 444.386">
  <g id="Group_228" data-name="Group 228" transform="translate(-71 -40)">
    <circle id="Ellipse_41" data-name="Ellipse 41" cx="113.5" cy="113.5" r="113.5" transform="translate(114 73)" fill="rgba(108,209,217,0.2)"/>
    <circle id="Ellipse_42" data-name="Ellipse 42" cx="73" cy="73" r="73" transform="translate(71 154)" fill="rgba(253,194,76,0.38)"/>
    <g id="Layer_2" data-name="Layer 2" transform="translate(214.628 34)">
      <g id="Layer_1" data-name="Layer 1" transform="translate(-2.984 6)">
        <path id="Path_181" data-name="Path 181" d="M92.39,659.45l5.437,17.38,21.734.764,1.453-26.133Z" transform="translate(-37.954 -256.546)" fill="#f77f89" fill-rule="evenodd"/>
        <path id="Path_182" data-name="Path 182" d="M151.958,689.61v22.835L93.19,713.737s1.671-16.319,31.722-16.586c-.112-7.171-.125-7.541-.125-7.541Z" transform="translate(-69.397 -271.57)" fill="#6367fd" fill-rule="evenodd"/>
        <path id="Path_183" data-name="Path 183" d="M79.2,669.3l-.405,17.113-22.694.77L50.2,668.14Z" transform="translate(30.166 -263.115)" fill="#f77f89" fill-rule="evenodd"/>
        <path id="Path_184" data-name="Path 184" d="M67.617,0C42.922,0,37.809,22.811,37.8,31.189c0,7.984,1.6,9.2,1.546,17.295-.037,6.147-1.87,10.451-1.7,13.943.973,18.186,26.26,23.43,33.48,23.533s38.655-5.813,38.655-19.95c0-9.863-6.453-25.636-6.278-36.59C103.884,6.668,84.32,0,67.617,0Z" transform="translate(7.425)" fill-rule="evenodd"/>
        <path id="Path_185" data-name="Path 185" d="M108.026,693.28l-.337,22.854L50,717.4s0-16.664,31.6-16.974V693.28Z" transform="translate(1.462 -273.015)" fill="#6367fd" fill-rule="evenodd"/>
        <path id="Path_186" data-name="Path 186" d="M126.372,374.18l-.15,159.873L85,533.179l-.623-7.4-26.584,3.486L40.92,362.559l9.109-42.688,60.208-1.6Z" transform="translate(-11.223 -125.335)" fill="#3b4161" fill-rule="evenodd"/>
        <path id="Path_187" data-name="Path 187" d="M132.95,522.56l-24.72,40.391,4.695,46.338,26.628-3.031Z" transform="translate(-66.369 -205.785)" fill="#15192c" fill-rule="evenodd"/>
        <path id="Path_188" data-name="Path 188" d="M116.271,256.49H72.479L66.55,193.585l7.912-48.2,14.963-14.009,15-6.511,27.089,4.025Z" transform="translate(-32.345 -49.17)" fill="#6cd1d9" fill-rule="evenodd"/>
        <path id="Path_189" data-name="Path 189" d="M63.667,563.277,63.38,393.22" transform="translate(37.479 -154.851)" fill="none" stroke="#737999" stroke-linecap="round" stroke-linejoin="round" stroke-width="1.7"/>
        <path id="Path_190" data-name="Path 190" d="M18.226,123.573c10.237.273,40.806,11.063,45.27,22.011,3.392,8.3,5.717,83.449-2.251,87.117a8.812,8.812,0,0,1-1.6.57c.48,2.3,5.069,55.643,3.9,60.08s-4.227,11.154-8.66,10.912C37.74,303.263,6.23,281.373,3.1,277.8c-.48-6.765-1.808-32.177-1.808-32.177l2.731-75.4,15.63-41.549S7.988,123.3,18.226,123.573Z" transform="translate(73.225 -48.659)" fill="#fff" fill-rule="evenodd"/>
        <path id="Path_191" data-name="Path 191" d="M162.028,122.8c-17.6,2.128-42.445,15.4-45.644,21.441-2.693,5.08-1.328,70.846-1.328,70.846a41.271,41.271,0,0,1,5.48,32.444c-4.127,17.652-5.349,41.482-1.022,45.938,7.132-3.51,16.3-17.58,17.956-21.047s2.082-23.084,3.354-27.279,6.964-78.46,6.964-78.46S150.444,136.682,162.028,122.8Z" transform="translate(-92.884 -48.359)" fill="#fff" fill-rule="evenodd"/>
        <path id="Path_192" data-name="Path 192" d="M79.7,133.22c-8.859,15.707-26.809,33.608-36.061,40.439" transform="translate(33.752 -52.462)" fill="none" stroke="#c9c9c9" stroke-linecap="round" stroke-linejoin="round" stroke-width="2"/>
        <path id="Path_193" data-name="Path 193" d="M136.365,125.77c-7.887,10.342-9.919,27.915-3.741,45.762" transform="translate(-76.13 -49.528)" fill="none" stroke="#c9c9c9" stroke-linecap="round" stroke-linejoin="round" stroke-width="2"/>
        <path id="Path_194" data-name="Path 194" d="M72.04,201.166a7.023,7.023,0,1,0-7.014,6.826A6.925,6.925,0,0,0,72.04,201.166Z" transform="translate(32.46 -76.531)" fill="none" stroke="#353823" stroke-linecap="round" stroke-linejoin="round" stroke-width="3.41"/>
        <path id="Path_195" data-name="Path 195" d="M70.65,203.336a3.586,3.586,0,1,0-3.585,3.486A3.536,3.536,0,0,0,70.65,203.336Z" transform="translate(30.434 -78.701)" fill="#353823" fill-rule="evenodd"/>
        <path id="Path_196" data-name="Path 196" d="M68.522,165.707c4.738-16.919,5.044-40.464-7.189-44.707" transform="translate(30.86 -47.65)" fill="none" stroke="#353823" stroke-linecap="round" stroke-linejoin="round" stroke-width="3.41"/>
        <path id="Path_197" data-name="Path 197" d="M127.181,116.25c-6.977,2.873-13.623,16.125-15.181,27.473" transform="translate(-56.348 -45.779)" fill="none" stroke="#353823" stroke-linecap="round" stroke-linejoin="round" stroke-width="3.41"/>
        <path id="Path_198" data-name="Path 198" d="M146.952,182.787c2.232-10.487-1.135-20-7.519-21.314s-13.373,6.171-15.587,16.658,1.135,20,7.519,21.308S144.72,193.256,146.952,182.787Z" transform="translate(-83.768 -63.53)" fill="none" stroke="#353823" stroke-linecap="round" stroke-linejoin="round" stroke-width="3.41"/>
        <path id="Path_199" data-name="Path 199" d="M50.31,169.52,53,220.507" transform="translate(56.291 -66.757)" fill="none" stroke="#c9c9c9" stroke-linecap="round" stroke-linejoin="round" stroke-width="2"/>
        <path id="Path_200" data-name="Path 200" d="M49.471,172l-7,9.493" transform="translate(64.711 -67.734)" fill="none" stroke="#c9c9c9" stroke-linecap="round" stroke-linejoin="round" stroke-width="2"/>
        <path id="Path_201" data-name="Path 201" d="M36.82,246.94,63.741,253.2" transform="translate(53.964 -97.245)" fill="#606060" stroke="#c9c9c9" stroke-linecap="round" stroke-linejoin="round" stroke-width="2" fill-rule="evenodd"/>
        <path id="Path_202" data-name="Path 202" d="M45.858,245.72,39,250.812" transform="translate(70.488 -96.765)" fill="none" stroke="#c9c9c9" stroke-linecap="round" stroke-linejoin="round" stroke-width="2"/>
        <path id="Path_203" data-name="Path 203" d="M1.016,233.9c11.322,4.431,38.218,9.729,43.3,5.341,6.8-5.874,8.728-66.5,5.318-82.582-1.989-9.36-12.033-15.385-17.27-17.81" transform="translate(88.746 -54.679)" fill="none" stroke="#c9c9c9" stroke-linecap="round" stroke-linejoin="round" stroke-width="2"/>
        <path id="Path_204" data-name="Path 204" d="M62.924,280.571c3.23-3.983,4.464-23.842,2.905-29.8" transform="translate(34.93 -98.754)" fill="none" stroke="#c9c9c9" stroke-linecap="round" stroke-linejoin="round" stroke-width="2"/>
        <path id="Path_205" data-name="Path 205" d="M72.522,256.126a1.6,1.6,0,0,0-1.012-1.483,1.68,1.68,0,0,0-1.8.343,1.568,1.568,0,0,0-.36,1.745,1.647,1.647,0,0,0,1.521.989,1.664,1.664,0,0,0,1.163-.465,1.572,1.572,0,0,0,.482-1.13Z" transform="translate(24.977 -100.23)" fill="#c9c9c9" fill-rule="evenodd"/>
        <path id="Path_206" data-name="Path 206" d="M33.011,337.47a31.028,31.028,0,0,0,19.633.818,9.79,9.79,0,0,1,.33,2.352V353.3a10.291,10.291,0,0,1-20.574,0V340.628A9.7,9.7,0,0,1,33.011,337.47Z" transform="translate(67.487 -132.896)" fill="none" stroke="#c9c9c9" stroke-linecap="round" stroke-linejoin="round" stroke-width="2"/>
        <path id="Path_207" data-name="Path 207" d="M141.188,190.52H87.426c-3.261,0-5.206,2.479-4.364,5.535l20.755,74.235a8.118,8.118,0,0,0,7.482,5.535h53.73c3.254,0,5.206-2.479,4.364-5.535l-20.749-74.235A8.111,8.111,0,0,0,141.188,190.52Z" transform="translate(-80.592 -75.027)" fill="#6367fd" fill-rule="evenodd"/>
        <path id="Path_208" data-name="Path 208" d="M176.55,184.216H146.038a2.038,2.038,0,0,0-1.775.772,1.914,1.914,0,0,0-.276,1.871l1.484,5.044a3.939,3.939,0,0,0,3.6,2.643h30.512a2.044,2.044,0,0,0,1.77-.775,1.92,1.92,0,0,0,.281-1.868l-1.484-5.044A3.952,3.952,0,0,0,176.55,184.216Z" transform="translate(-130.792 -72.542)" fill="#3b4161" fill-rule="evenodd"/>
        <path id="Path_209" data-name="Path 209" d="M112.72,240.389a37.068,37.068,0,0,0-7.525-3.195c-3.784-3.031-6.565-15-7.569-15.761s-4.364-.267-4.464.867c-.436,4.152-.206,9,3.579,13.336-11.01-6.808-11.846-9.826-14.876-7.547s-4.121,13.4-1.521,17.992c7.157,12.682,25.986,14.4,31.747,14.482C113.524,254.532,113.524,247.239,112.72,240.389Z" transform="translate(-21.78 -87.058)" fill="#ffc1c7" fill-rule="evenodd"/>
        <path id="Path_210" data-name="Path 210" d="M83.72,652.788,41.15,651.46" transform="translate(31.286 -256.546)" fill="none" stroke="#737999" stroke-linecap="round" stroke-linejoin="round" stroke-width="1.7"/>
        <path id="Path_211" data-name="Path 211" d="M108.31,386.65l13.005,166.062" transform="translate(-48.182 -152.264)" fill="none" stroke="#737999" stroke-linecap="round" stroke-linejoin="round" stroke-width="1.7"/>
        <path id="Path_212" data-name="Path 212" d="M136.884,638.58,110,641.647" transform="translate(-64.804 -251.474)" fill="none" stroke="#737999" stroke-linecap="round" stroke-linejoin="round" stroke-width="1.7"/>
        <path id="Path_213" data-name="Path 213" d="M147,513.333a11.259,11.259,0,0,0,10.968-5.679,10.627,10.627,0,0,0-1.2-12.025,11.373,11.373,0,0,0-11.889-3.514" transform="translate(-108.951 -193.612)" fill="none" stroke="#737999" stroke-linecap="round" stroke-linejoin="round" stroke-width="1.7"/>
        <path id="Path_214" data-name="Path 214" d="M100.808,524.115a11.992,11.992,0,1,0-.68-23.975q-.623,0-1.178.055" transform="translate(-33.497 -196.956)" fill="none" stroke="#737999" stroke-linecap="round" stroke-linejoin="round" stroke-width="1.7"/>
        <path id="Path_215" data-name="Path 215" d="M116.9,238.09l9.632,7.5" transform="translate(-58.754 -93.76)" fill="none" stroke="#de9299" stroke-linecap="round" stroke-linejoin="round" stroke-width="3.41"/>
        <path id="Path_216" data-name="Path 216" d="M114.38,250.89l12.232,9.457" transform="translate(-57.263 -98.801)" fill="none" stroke="#de9299" stroke-linecap="round" stroke-linejoin="round" stroke-width="3.41"/>
        <path id="Path_217" data-name="Path 217" d="M214.99,238.344a34.115,34.115,0,0,0-2.905-13.336c-.835-1.916-.885-5.068,2.051-5.068,3.342,0,7.812,6.523,5.611,14.288S214.772,241.872,214.99,238.344Z" transform="translate(-211.59 -86.613)" fill="#ffc1c7" fill-rule="evenodd"/>
        <path id="Path_218" data-name="Path 218" d="M209.074,226.09c-2.656,0-10.73,15.531-10.674,17.416s.9,4.753,2.151,4.607,11.74-13.124,11.74-17.531C212.291,228.03,211.013,226.09,209.074,226.09Z" transform="translate(-195.325 -89.035)" fill="#ffc1c7" fill-rule="evenodd"/>
        <path id="Path_219" data-name="Path 219" d="M205.373,240.81c-3.311,0-12.039,12.379-12.1,13.8s1.7,2.722,3.161,2.782,11.889-8.256,11.889-12.124C208.34,242.9,207.243,240.81,205.373,240.81Z" transform="translate(-188.157 -94.831)" fill="#ffc1c7" fill-rule="evenodd"/>
        <path id="Path_220" data-name="Path 220" d="M203.593,272.485c-1.434-.067-5.424-3.534-5.424-6.262,0-1.073,2.787-3.849,4.183-3.764s4.246,5.3,4.19,6.632S205.469,272.552,203.593,272.485Z" transform="translate(-189.432 -103.356)" fill="#ffc1c7" fill-rule="evenodd"/>
        <path id="Path_221" data-name="Path 221" d="M217.261,235.56c-2.862,4.631-5.692,10.56-5.661,11.675" transform="translate(-208.525 -92.764)" fill="none" stroke="#de9299" stroke-linecap="round" stroke-linejoin="round" stroke-width="3.41"/>
        <path id="Path_222" data-name="Path 222" d="M211.291,242.31c-3.94,2.885-10.032,11.706-10.081,12.888" transform="translate(-196.077 -95.422)" fill="none" stroke="#de9299" stroke-linecap="round" stroke-linejoin="round" stroke-width="3.41"/>
        <path id="Path_223" data-name="Path 223" d="M114.084,42.151A25.515,25.515,0,1,0,88.56,67.278,25.342,25.342,0,0,0,114.084,42.151Z" transform="translate(-12.739 -6.695)" fill="#ffc1c7" fill-rule="evenodd"/>
        <path id="Path_224" data-name="Path 224" d="M101.363,59.766c-.274-1.6-1.247-2.782-2.22-2.625s-1.509,1.576-1.247,3.176,1.247,2.782,2.22,2.631S101.631,61.372,101.363,59.766Z" transform="translate(-21.764 -22.497)" fill="#b5545c" fill-rule="evenodd"/>
        <path id="Path_225" data-name="Path 225" d="M131.937,61.857c-.256-1.5-1.178-2.6-2.07-2.455s-1.409,1.473-1.16,2.97,1.185,2.595,2.076,2.425S132.193,63.354,131.937,61.857Z" transform="translate(-71.547 -23.387)" fill="#b5545c" fill-rule="evenodd"/>
        <path id="Path_226" data-name="Path 226" d="M100.662,76.217c-1.515,4.1-5.324,25.394-4.364,33.129-3.99,5.88-21.771,4.243-27.071-.734A33.038,33.038,0,0,0,71,90.28C70.081,84.631,102.177,72.131,100.662,76.217Z" transform="translate(-3.213 -29.697)" fill="#ffc1c7" fill-rule="evenodd"/>
        <path id="Path_227" data-name="Path 227" d="M59.826,14.018c-.218,5.971,5.387,11.675,20.624,14.506-1.671,4.189-1.808,10.487,6.515,11.621,9.707,1.309,10.5-10.748,10.5-10.748L82.925,12.7S60.038,8.035,59.826,14.018Z" transform="translate(5.901 -4.319)" fill-rule="evenodd"/>
        <path id="Path_228" data-name="Path 228" d="M135.146,8.569c.623,5.3-5.655,18.186-20.194,18.538C104.615,27.106,134.541,3.259,135.146,8.569Z" transform="translate(-64.843 -3.071)" fill-rule="evenodd"/>
        <path id="Path_232" data-name="Path 232" d="M72.681,56.641a8.314,8.314,0,1,0-8.311,8.081,8.2,8.2,0,0,0,8.311-8.081Z" transform="translate(33.028 -19.123)" fill="#ffc1c7" fill-rule="evenodd"/>
        <path id="Path_233" data-name="Path 233" d="M50.43,723.916l56.024-.376" transform="translate(2.765 -284.931)" fill="none" stroke="#4c4fd9" stroke-linecap="round" stroke-linejoin="round" stroke-width="1.7"/>
        <path id="Path_234" data-name="Path 234" d="M92.39,717.831c1.54-4.734,7.563-14.009,31.061-14.234v-2.3" transform="translate(-40.392 -276.173)" fill="none" stroke="#4c4fd9" stroke-linecap="round" stroke-linejoin="round" stroke-width="1.7"/>
        <path id="Path_235" data-name="Path 235" d="M61.029,713.18a10.455,10.455,0,0,0-10.6,10.305v.806" transform="translate(48.191 -280.852)" fill="none" stroke="#4c4fd9" stroke-linecap="round" stroke-linejoin="round" stroke-width="1.7"/>
        <path id="Path_236" data-name="Path 236" d="M105.1,710.711l-2.749-4.631" transform="translate(-28.25 -278.056)" fill="none" stroke="#4c4fd9" stroke-linecap="round" stroke-linejoin="round" stroke-width="1.7"/>
        <path id="Path_237" data-name="Path 237" d="M115.074,712.566l-2.344-4.546" transform="translate(-44.696 -278.82)" fill="none" stroke="#4c4fd9" stroke-linecap="round" stroke-linejoin="round" stroke-width="1.7"/>
        <path id="Path_238" data-name="Path 238" d="M124.589,715.1l-2.039-3.68" transform="translate(-60.333 -280.159)" fill="none" stroke="#4c4fd9" stroke-linecap="round" stroke-linejoin="round" stroke-width="1.7"/>
        <path id="Path_239" data-name="Path 239" d="M133.806,351.065l-29.116-.885" transform="translate(-58.415 -137.902)" fill="none" stroke="#737999" stroke-linecap="round" stroke-linejoin="round" stroke-width="1.7"/>
        <path id="Path_240" data-name="Path 240" d="M76.455,697.858,50.07,697.44" transform="translate(32.989 -274.653)" fill="none" stroke="#4c4fd9" stroke-linecap="round" stroke-linejoin="round" stroke-width="1.7"/>
        <path id="Path_241" data-name="Path 241" d="M120.323,693.862,93.19,693.65" transform="translate(-37.763 -273.161)" fill="none" stroke="#4c4fd9" stroke-linecap="round" stroke-linejoin="round" stroke-width="1.7"/>
        <path id="Path_242" data-name="Path 242" d="M138.77,722.426l28.941-.606" transform="translate(-113.568 -284.254)" fill="none" stroke="#4c4fd9" stroke-linecap="round" stroke-linejoin="round" stroke-width="1.7"/>
        <path id="Path_243" data-name="Path 243" d="M146.67,703.06l2.494,4.31" transform="translate(-99.946 -276.866)" fill="none" stroke="#4c4fd9" stroke-linecap="round" stroke-linejoin="round" stroke-width="1.7"/>
        <path id="Path_244" data-name="Path 244" d="M153.34,704.65l2.494,4.316" transform="translate(-110.775 -277.493)" fill="none" stroke="#4c4fd9" stroke-linecap="round" stroke-linejoin="round" stroke-width="1.7"/>
        <path id="Path_245" data-name="Path 245" d="M160.46,706.61l2.494,4.316" transform="translate(-122.334 -278.264)" fill="none" stroke="#4c4fd9" stroke-linecap="round" stroke-linejoin="round" stroke-width="1.7"/>
        <path id="Path_246" data-name="Path 246" d="M6.139,379.875c9.352,3.807,16.372-2.976,16.428-9.7s-2.681-46.835-3.055-50.836" transform="translate(114.266 -125.757)" fill="none" stroke="#c9c9c9" stroke-linecap="round" stroke-linejoin="round" stroke-width="2"/>
        <path id="Path_247" data-name="Path 247" d="M156.962,159.256c-.486-13.724,14.377-20,20.493-22.7" transform="translate(-134.646 -53.778)" fill="none" stroke="#c9c9c9" stroke-linecap="round" stroke-linejoin="round" stroke-width="2"/>
        <path id="Path_248" data-name="Path 248" d="M184.827,377.478c-1.166-7.317-1.247-27.115.723-34.668" transform="translate(-159.606 -134.999)" fill="none" stroke="#c9c9c9" stroke-linecap="round" stroke-linejoin="round" stroke-width="2"/>
        <path id="Path_249" data-name="Path 249" d="M-.881,3.649A12.706,12.706,0,0,1,5.531.209a12.365,12.365,0,0,1,7.553.669" transform="translate(74.339 53.003) rotate(-171)" fill="none" stroke="#b5545c" stroke-linecap="round" stroke-linejoin="bevel" stroke-width="2"/>
      </g>
    </g>
  </g>
</svg>
